<mxfile host="app.diagrams.net" agent="Mozilla/5.0 (X11; Linux x86_64) AppleWebKit/537.36 (KHTML, like Gecko) Chrome/126.0.0.0 YaBrowser/24.7.0.0 Safari/537.36" version="24.7.7">
  <diagram id="C5RBs43oDa-KdzZeNtuy" name="Page-1">
    <mxGraphModel dx="1687" dy="898" grid="1" gridSize="10" guides="1" tooltips="1" connect="1" arrows="1" fold="1" page="1" pageScale="1" pageWidth="1169" pageHeight="827" math="0" shadow="0">
      <root>
        <mxCell id="WIyWlLk6GJQsqaUBKTNV-0" />
        <mxCell id="WIyWlLk6GJQsqaUBKTNV-1" parent="WIyWlLk6GJQsqaUBKTNV-0" />
        <mxCell id="oEOvBtnqVhMtwNFOPzGN-0" value="&lt;h2&gt;&lt;font style=&quot;font-size: 17px;&quot;&gt;Опишите процесс «Обработка заявки на обучение»&lt;br&gt;&lt;/font&gt;&lt;font style=&quot;font-size: 17px;&quot;&gt;на примере компании Geekbrains&lt;/font&gt;&lt;/h2&gt;" style="text;whiteSpace=wrap;html=1;" vertex="1" parent="WIyWlLk6GJQsqaUBKTNV-1">
          <mxGeometry x="40" y="40" width="540" height="100" as="geometry" />
        </mxCell>
        <mxCell id="oEOvBtnqVhMtwNFOPzGN-5" value="" style="edgeStyle=orthogonalEdgeStyle;rounded=0;orthogonalLoop=1;jettySize=auto;html=1;" edge="1" parent="WIyWlLk6GJQsqaUBKTNV-1" source="oEOvBtnqVhMtwNFOPzGN-1" target="oEOvBtnqVhMtwNFOPzGN-4">
          <mxGeometry relative="1" as="geometry" />
        </mxCell>
        <mxCell id="oEOvBtnqVhMtwNFOPzGN-1" value="Поступила заявка на обучение" style="ellipse;whiteSpace=wrap;html=1;aspect=fixed;fillColor=#d5e8d4;strokeColor=#82b366;" vertex="1" parent="WIyWlLk6GJQsqaUBKTNV-1">
          <mxGeometry x="40" y="360" width="80" height="80" as="geometry" />
        </mxCell>
        <mxCell id="oEOvBtnqVhMtwNFOPzGN-7" value="" style="edgeStyle=orthogonalEdgeStyle;rounded=0;orthogonalLoop=1;jettySize=auto;html=1;" edge="1" parent="WIyWlLk6GJQsqaUBKTNV-1" source="oEOvBtnqVhMtwNFOPzGN-4" target="oEOvBtnqVhMtwNFOPzGN-6">
          <mxGeometry relative="1" as="geometry" />
        </mxCell>
        <mxCell id="oEOvBtnqVhMtwNFOPzGN-4" value="Обработка заявки, назначение менеджера" style="rounded=1;whiteSpace=wrap;html=1;" vertex="1" parent="WIyWlLk6GJQsqaUBKTNV-1">
          <mxGeometry x="160" y="370" width="120" height="60" as="geometry" />
        </mxCell>
        <mxCell id="oEOvBtnqVhMtwNFOPzGN-9" value="" style="edgeStyle=orthogonalEdgeStyle;rounded=0;orthogonalLoop=1;jettySize=auto;html=1;" edge="1" parent="WIyWlLk6GJQsqaUBKTNV-1" source="oEOvBtnqVhMtwNFOPzGN-6" target="oEOvBtnqVhMtwNFOPzGN-8">
          <mxGeometry relative="1" as="geometry" />
        </mxCell>
        <mxCell id="oEOvBtnqVhMtwNFOPzGN-6" value="Выявление потребностей клиента" style="whiteSpace=wrap;html=1;rounded=1;" vertex="1" parent="WIyWlLk6GJQsqaUBKTNV-1">
          <mxGeometry x="320" y="370" width="120" height="60" as="geometry" />
        </mxCell>
        <mxCell id="oEOvBtnqVhMtwNFOPzGN-11" value="" style="edgeStyle=orthogonalEdgeStyle;rounded=0;orthogonalLoop=1;jettySize=auto;html=1;" edge="1" parent="WIyWlLk6GJQsqaUBKTNV-1" source="oEOvBtnqVhMtwNFOPzGN-8" target="oEOvBtnqVhMtwNFOPzGN-10">
          <mxGeometry relative="1" as="geometry" />
        </mxCell>
        <mxCell id="oEOvBtnqVhMtwNFOPzGN-8" value="Презентация существующего курса обучения" style="whiteSpace=wrap;html=1;rounded=1;" vertex="1" parent="WIyWlLk6GJQsqaUBKTNV-1">
          <mxGeometry x="480" y="370" width="120" height="60" as="geometry" />
        </mxCell>
        <mxCell id="oEOvBtnqVhMtwNFOPzGN-19" value="" style="edgeStyle=orthogonalEdgeStyle;rounded=0;orthogonalLoop=1;jettySize=auto;html=1;" edge="1" parent="WIyWlLk6GJQsqaUBKTNV-1" source="oEOvBtnqVhMtwNFOPzGN-10" target="oEOvBtnqVhMtwNFOPzGN-18">
          <mxGeometry relative="1" as="geometry" />
        </mxCell>
        <mxCell id="oEOvBtnqVhMtwNFOPzGN-25" value="" style="edgeStyle=orthogonalEdgeStyle;rounded=0;orthogonalLoop=1;jettySize=auto;html=1;" edge="1" parent="WIyWlLk6GJQsqaUBKTNV-1" source="oEOvBtnqVhMtwNFOPzGN-10" target="oEOvBtnqVhMtwNFOPzGN-12">
          <mxGeometry relative="1" as="geometry" />
        </mxCell>
        <mxCell id="oEOvBtnqVhMtwNFOPzGN-10" value="" style="rhombus;whiteSpace=wrap;html=1;" vertex="1" parent="WIyWlLk6GJQsqaUBKTNV-1">
          <mxGeometry x="640" y="360" width="80" height="80" as="geometry" />
        </mxCell>
        <mxCell id="oEOvBtnqVhMtwNFOPzGN-26" value="" style="edgeStyle=orthogonalEdgeStyle;rounded=0;orthogonalLoop=1;jettySize=auto;html=1;" edge="1" parent="WIyWlLk6GJQsqaUBKTNV-1" source="oEOvBtnqVhMtwNFOPzGN-12" target="oEOvBtnqVhMtwNFOPzGN-16">
          <mxGeometry relative="1" as="geometry" />
        </mxCell>
        <mxCell id="oEOvBtnqVhMtwNFOPzGN-12" value="Клиент не согласен" style="ellipse;whiteSpace=wrap;html=1;aspect=fixed;" vertex="1" parent="WIyWlLk6GJQsqaUBKTNV-1">
          <mxGeometry x="640" y="200" width="80" height="80" as="geometry" />
        </mxCell>
        <mxCell id="oEOvBtnqVhMtwNFOPzGN-14" value="Сделка" style="ellipse;whiteSpace=wrap;html=1;fillColor=#dae8fc;strokeColor=#6c8ebf;" vertex="1" parent="WIyWlLk6GJQsqaUBKTNV-1">
          <mxGeometry x="1040" y="360" width="80" height="80" as="geometry" />
        </mxCell>
        <mxCell id="oEOvBtnqVhMtwNFOPzGN-28" value="" style="edgeStyle=orthogonalEdgeStyle;rounded=0;orthogonalLoop=1;jettySize=auto;html=1;" edge="1" parent="WIyWlLk6GJQsqaUBKTNV-1" source="oEOvBtnqVhMtwNFOPzGN-16">
          <mxGeometry relative="1" as="geometry">
            <mxPoint x="920" y="240" as="targetPoint" />
          </mxGeometry>
        </mxCell>
        <mxCell id="oEOvBtnqVhMtwNFOPzGN-16" value="Работа с возражениями" style="rounded=1;whiteSpace=wrap;html=1;" vertex="1" parent="WIyWlLk6GJQsqaUBKTNV-1">
          <mxGeometry x="760" y="210" width="120" height="60" as="geometry" />
        </mxCell>
        <mxCell id="oEOvBtnqVhMtwNFOPzGN-23" value="" style="edgeStyle=orthogonalEdgeStyle;rounded=0;orthogonalLoop=1;jettySize=auto;html=1;" edge="1" parent="WIyWlLk6GJQsqaUBKTNV-1" source="oEOvBtnqVhMtwNFOPzGN-18" target="oEOvBtnqVhMtwNFOPzGN-22">
          <mxGeometry relative="1" as="geometry" />
        </mxCell>
        <mxCell id="oEOvBtnqVhMtwNFOPzGN-18" value="Клиент согласен" style="ellipse;whiteSpace=wrap;html=1;" vertex="1" parent="WIyWlLk6GJQsqaUBKTNV-1">
          <mxGeometry x="760" y="360" width="80" height="80" as="geometry" />
        </mxCell>
        <mxCell id="oEOvBtnqVhMtwNFOPzGN-24" value="" style="edgeStyle=orthogonalEdgeStyle;rounded=0;orthogonalLoop=1;jettySize=auto;html=1;" edge="1" parent="WIyWlLk6GJQsqaUBKTNV-1" source="oEOvBtnqVhMtwNFOPzGN-22" target="oEOvBtnqVhMtwNFOPzGN-14">
          <mxGeometry relative="1" as="geometry" />
        </mxCell>
        <mxCell id="oEOvBtnqVhMtwNFOPzGN-22" value="Оформление договора" style="rounded=1;whiteSpace=wrap;html=1;" vertex="1" parent="WIyWlLk6GJQsqaUBKTNV-1">
          <mxGeometry x="880" y="370" width="120" height="60" as="geometry" />
        </mxCell>
        <mxCell id="oEOvBtnqVhMtwNFOPzGN-30" style="edgeStyle=orthogonalEdgeStyle;rounded=0;orthogonalLoop=1;jettySize=auto;html=1;entryX=0.5;entryY=0;entryDx=0;entryDy=0;" edge="1" parent="WIyWlLk6GJQsqaUBKTNV-1" source="oEOvBtnqVhMtwNFOPzGN-29" target="oEOvBtnqVhMtwNFOPzGN-18">
          <mxGeometry relative="1" as="geometry">
            <Array as="points">
              <mxPoint x="960" y="320" />
              <mxPoint x="800" y="320" />
            </Array>
          </mxGeometry>
        </mxCell>
        <mxCell id="oEOvBtnqVhMtwNFOPzGN-32" value="" style="edgeStyle=orthogonalEdgeStyle;rounded=0;orthogonalLoop=1;jettySize=auto;html=1;" edge="1" parent="WIyWlLk6GJQsqaUBKTNV-1" source="oEOvBtnqVhMtwNFOPzGN-29" target="oEOvBtnqVhMtwNFOPzGN-31">
          <mxGeometry relative="1" as="geometry" />
        </mxCell>
        <mxCell id="oEOvBtnqVhMtwNFOPzGN-29" value="" style="rhombus;whiteSpace=wrap;html=1;" vertex="1" parent="WIyWlLk6GJQsqaUBKTNV-1">
          <mxGeometry x="920" y="200" width="80" height="80" as="geometry" />
        </mxCell>
        <mxCell id="oEOvBtnqVhMtwNFOPzGN-31" value="Клиент отказался" style="ellipse;whiteSpace=wrap;html=1;aspect=fixed;fillColor=#f8cecc;strokeColor=#b85450;" vertex="1" parent="WIyWlLk6GJQsqaUBKTNV-1">
          <mxGeometry x="1040" y="200" width="80" height="80" as="geometry" />
        </mxCell>
        <mxCell id="oEOvBtnqVhMtwNFOPzGN-33" value="CRM" style="rounded=0;whiteSpace=wrap;html=1;" vertex="1" parent="WIyWlLk6GJQsqaUBKTNV-1">
          <mxGeometry x="160" y="260" width="120" height="60" as="geometry" />
        </mxCell>
        <mxCell id="oEOvBtnqVhMtwNFOPzGN-34" value="" style="endArrow=classic;dashed=1;html=1;strokeWidth=2;rounded=0;exitX=0.5;exitY=1;exitDx=0;exitDy=0;endFill=1;entryX=0.5;entryY=0;entryDx=0;entryDy=0;" edge="1" parent="WIyWlLk6GJQsqaUBKTNV-1" source="oEOvBtnqVhMtwNFOPzGN-33" target="oEOvBtnqVhMtwNFOPzGN-4">
          <mxGeometry width="50" height="50" relative="1" as="geometry">
            <mxPoint x="350" y="400" as="sourcePoint" />
            <mxPoint x="120" y="330" as="targetPoint" />
          </mxGeometry>
        </mxCell>
        <mxCell id="oEOvBtnqVhMtwNFOPzGN-36" value="Презентация" style="rounded=0;whiteSpace=wrap;html=1;" vertex="1" parent="WIyWlLk6GJQsqaUBKTNV-1">
          <mxGeometry x="480" y="260" width="120" height="60" as="geometry" />
        </mxCell>
        <mxCell id="oEOvBtnqVhMtwNFOPzGN-37" value="" style="endArrow=classic;dashed=1;html=1;strokeWidth=2;rounded=0;exitX=0.5;exitY=1;exitDx=0;exitDy=0;endFill=1;entryX=0.5;entryY=0;entryDx=0;entryDy=0;" edge="1" parent="WIyWlLk6GJQsqaUBKTNV-1" source="oEOvBtnqVhMtwNFOPzGN-36">
          <mxGeometry width="50" height="50" relative="1" as="geometry">
            <mxPoint x="670" y="400" as="sourcePoint" />
            <mxPoint x="540" y="370" as="targetPoint" />
          </mxGeometry>
        </mxCell>
        <mxCell id="oEOvBtnqVhMtwNFOPzGN-38" value="Скрипт менеджера" style="rounded=0;whiteSpace=wrap;html=1;" vertex="1" parent="WIyWlLk6GJQsqaUBKTNV-1">
          <mxGeometry x="760" y="100" width="120" height="60" as="geometry" />
        </mxCell>
        <mxCell id="oEOvBtnqVhMtwNFOPzGN-39" value="" style="endArrow=classic;dashed=1;html=1;strokeWidth=2;rounded=0;exitX=0.5;exitY=1;exitDx=0;exitDy=0;endFill=1;entryX=0.5;entryY=0;entryDx=0;entryDy=0;" edge="1" parent="WIyWlLk6GJQsqaUBKTNV-1" source="oEOvBtnqVhMtwNFOPzGN-38">
          <mxGeometry width="50" height="50" relative="1" as="geometry">
            <mxPoint x="950" y="240" as="sourcePoint" />
            <mxPoint x="820" y="210" as="targetPoint" />
          </mxGeometry>
        </mxCell>
      </root>
    </mxGraphModel>
  </diagram>
</mxfile>
